<?xml version="1.0" encoding="utf-8"?>
<!-- Generator: Adobe Illustrator 16.0.3, SVG Export Plug-In . SVG Version: 6.00 Build 0)  -->
<!DOCTYPE svg PUBLIC "-//W3C//DTD SVG 1.1//EN" "http://www.w3.org/Graphics/SVG/1.1/DTD/svg11.dtd">
<svg version="1.1" xmlns="http://www.w3.org/2000/svg" xmlns:xlink="http://www.w3.org/1999/xlink" x="0px" y="0px" width="20px"
	 height="20px" viewBox="0 0 20 20" enable-background="new 0 0 20 20" xml:space="preserve">
<g id="Layer_2" display="none">
	<rect x="1.9" y="2" display="inline" opacity="0.6" fill="#575E75" width="16.2" height="16.2"/>
</g>
<g id="Layer_1" display="none">
	<title>reshape</title>
	<desc>Created with Sketch.</desc>
	<g id="Page-1" display="inline">
		<g id="reshape">
			<g id="reshape-icon" transform="translate(3.000000, 2.000000)">
				<path id="Stroke-1" fill="none" stroke="#575E75" stroke-width="0.75" d="M6.372,0c0,1.203-0.333,2.328-0.913,3.288
					c-0.14,0.232-1.158-0.137-1.631,0.331c-0.473,0.467-0.35,1.727-0.566,1.856C2.308,6.044,1.192,6.372,0,6.372"/>
				<path id="Combined-Shape" fill="#575E75" d="M4,6.95C2.859,6.718,2,5.709,2,4.5C2,3.119,3.119,2,4.5,2S7,3.119,7,4.5
					c0,0.068-0.003,0.136-0.008,0.204L6.681,4.42C5.658,3.485,4,4.205,4,5.596V6.95z"/>
				<path id="Oval-2" fill="#575E75" fill-opacity="0.15" d="M4,7.964C2.304,7.722,1,6.263,1,4.5C1,2.567,2.567,1,4.5,1
					S8,2.567,8,4.5c0,0.345-0.05,0.679-0.143,0.993L6.681,4.42C5.658,3.485,4,4.205,4,5.596V7.964z"/>
				<path id="select-icon" fill="#575E75" d="M7.879,13.168l1.105,2.464c0.218,0.487,0.785,0.702,1.268,0.481
					c0.481-0.221,0.694-0.795,0.477-1.28l-1.093-2.436h2.762c0.548,0,0.81-0.666,0.407-1.033L6.007,5.159
					C5.623,4.807,5,5.078,5,5.596v9.207c0,0.548,0.682,0.805,1.048,0.396L7.879,13.168z"/>
			</g>
		</g>
	</g>
</g>
<g id="Layer_4">
	<g>
		<path fill="#575E75" d="M17.922,4.563l-1.047-2.438c-1.906,2.5-3.646,2.458-3.646,2.458C7.178,3.604,5,5.875,5,5.875
			c-4.094,3.719-1.458,8.417-1.458,8.417L5.5,16.396c3.6,2.688,7.271,0.459,7.604,0.25s3.479-1.75,3-6.25S17.922,4.563,17.922,4.563
			z M5.167,14.458C5.489,10.716,7.281,8.75,7.281,8.75c-2.406,2.031-2.938,4.531-2.938,4.531C2.5,8.362,6.625,5.656,8.75,5.5
			s4.313,0.219,4.313,0.219c-0.875,0.625-2.549,0.938-2.549,0.938c2.107,0.156,3.799-0.781,3.799-0.781
			C9.656,15.313,5.167,14.458,5.167,14.458z M6.542,15.417c3.104-1.041,5.489-4.651,5.489-4.651
			c0.703-1.016,2.386-3.807,2.386-3.807L13.984,8.5C11.864,16.422,6.542,15.417,6.542,15.417z M8.083,16.354
			c5.771-1.666,6.708-8.854,6.708-8.854c0.167,0.958,0.188,2.5,0.188,2.5C14.979,17.688,8.083,16.354,8.083,16.354z"/>
	</g>
	<path fill="#575E75" d="M5.5,16.396c0,0,0,0.333,0.625,0.938l-0.438,0.378c0,0-0.813-0.649-1.021-1.315c0,0-0.229,0.771,0,1.604
		l-0.688,0.2c0,0-0.208-1.18,0.146-2.2c0,0-0.708,0.634-1.083,1.417L2.479,17.1c0,0,0.709-1.161,0.979-1.433
		c0,0-0.625,0.271-1.396,0.25v-0.646c0,0,1.354-0.083,1.438-0.271c0,0-0.9-0.313-1.25-0.604l0.292-0.541c0,0,0.334,0.25,1,0.438
		L5.5,16.396z"/>
</g>
<g id="Layer_3" display="none">
</g>
</svg>
