<?xml version="1.0" encoding="utf-8"?>
<!-- Generator: Adobe Illustrator 16.0.3, SVG Export Plug-In . SVG Version: 6.00 Build 0)  -->
<!DOCTYPE svg PUBLIC "-//W3C//DTD SVG 1.1//EN" "http://www.w3.org/Graphics/SVG/1.1/DTD/svg11.dtd">
<svg version="1.1" id="Layer_1" xmlns="http://www.w3.org/2000/svg" xmlns:xlink="http://www.w3.org/1999/xlink" x="0px" y="0px"
	 width="208px" height="199px" viewBox="0 0 208 199" enable-background="new 0 0 208 199" xml:space="preserve">
<g id="Layer_5" display="none">
</g>
<g id="Layer_1_1_" display="none">
	
		<polygon display="inline" fill="#231F20" stroke="#231F20" stroke-width="5" stroke-linejoin="round" stroke-miterlimit="10" points="
		26.278,94.833 103.999,24 181.721,94.833 	"/>
	<g display="inline">
		<polygon fill="#231F20" stroke="#231F20" stroke-width="5" stroke-linejoin="round" stroke-miterlimit="10" points="
			163.08,85.333 44.919,85.333 44.919,179 79.125,179 79.125,130.417 128.875,130.417 128.875,179 163.08,179 		"/>
	</g>
</g>
<g id="Layer_2" display="none">
	<g display="inline">
		<path fill="#231F20" d="M165.729,53.732H42.269c-5.523,0-10,4.477-10,10v84.893c0,5.521,4.477,10,10,10h123.459
			c5.523,0,10-4.479,10-10V63.732C175.729,58.209,171.253,53.732,165.729,53.732z M79.009,137.791V76.208l60.5,30.792
			L79.009,137.791z"/>
	</g>
</g>
<g id="Layer_3">
	
		<circle fill="#A8ACB8" stroke="#A8ACB8" stroke-width="5" stroke-linejoin="round" stroke-miterlimit="10" cx="104.325" cy="119.412" r="57.354"/>
	<path fill="#A8ACB8" d="M175.925,146.736c0,21.217-18.938,37.063-77.373,32.465c-22.863-1.801-24.889-23.424-24.889-44.639
		c0-21.217,41.091-32.102,63.034-25.431C161.328,116.619,175.925,125.521,175.925,146.736z"/>
	<path fill="#A8ACB8" d="M49.086,99.365c0,0-8.797-23.456-1.354-44.431c2.755-7.764,22.667-1.918,33.831,17.028
		C106.327,113.982,49.086,99.365,49.086,99.365z"/>
	<path fill="#A8ACB8" d="M115.605,73.638c0,0,10.377-18.72,25.486-21.877c15.11-3.158,10.826,41.274,10.826,41.274L115.605,73.638z"
		/>
</g>
<g id="Layer_4" display="none">
	<g display="inline">
		<path fill="#231F20" d="M158.794,108.25c-8.224,0-15.282-3.055-18.25-10.218c-2.967,7.164-10.026,10.218-18.25,10.218
			s-15.282-3.055-18.25-10.218c-2.967,7.164-10.026,10.218-18.25,10.218s-15.283-3.055-18.25-10.218
			c-2.967,7.164-10.026,10.218-18.25,10.218c-2.42,0-4.73-0.459-6.875-1.26V160c0,1.381,1.119,2.5,2.5,2.5h118.16
			c1.381,0,2.5-1.119,2.5-2.5v-52.977C163.459,107.803,161.182,108.25,158.794,108.25z"/>
		<path fill="#231F20" d="M49.294,100.25c9.236,0,18.25-7.514,18.25-16.75l0,0l0,0c0,9.236,9.014,16.75,18.25,16.75
			s18.25-7.514,18.25-16.75l0,0l0,0c0,9.236,9.015,16.75,18.25,16.75s18.25-7.514,18.25-16.75l0,0l0,0
			c0,9.236,9.015,16.75,18.25,16.75s16.75-7.514,16.75-16.75h0.024c0-0.229-0.021-0.458-0.084-0.682l-10-35.25
			c-0.307-1.076-1.287-1.818-2.405-1.818H44.919c-1.118,0-2.1,0.742-2.405,1.818l-10,35.25c-0.063,0.225-0.085,0.454-0.085,0.682
			h0.115C32.544,92.736,40.058,100.25,49.294,100.25z"/>
	</g>
</g>
<g id="Layer_6" display="none">
	<g display="inline">
		<path fill="#231F20" d="M175.666,139.164c-1-16.666-4.333-32.333-4.333-32.333S163.667,58.165,127,60.498l-0.25,3.75
			c0,0,11.26,2.802,14.917,6.916c2.653,2.985,2.181,2.476-3.644,1.799c-8.41-4.12-18.332-6.728-29.028-7.322L109,65.498
			c0,0-0.152,0.043-0.422,0.12c-1.169-0.06-2.346-0.097-3.532-0.107c-0.028-0.008-0.046-0.013-0.046-0.013v0.013
			c-0.223-0.002-0.443-0.013-0.666-0.013c-12.614,0-24.32,2.816-34.003,7.626c-1.977-0.287-2.581-1.179-0.997-2.96
			c3.657-4.114,14.917-6.916,14.917-6.916L84,59.498c-36.667-2.333-44.333,46.333-44.333,46.333s-3.333,15.667-4.333,32.333
			s9.846,18.34,16,20.332c10.042,3.25,23.042,5.813,23.042,5.813s1.471-3.83,1.958-5.813c0.654-2.66,0.667-5.916,0.667-5.916
			s-12.853-4.146-17.375-12.084c0,0,2.102,0.848,5.445,2.102c10.554,6.58,24.264,10.566,39.263,10.566
			c0.154,0,0.305-0.008,0.458-0.01c0.067,0.002,0.142,0.006,0.208,0.006c0.533,0,1.084-0.014,1.648-0.039
			c10.259-0.281,19.854-2.422,28.181-5.973c10.761-3.271,16.545-5.652,16.545-5.652c-4.522,7.938-17.375,12.084-17.375,12.084
			s0.013,3.256,0.667,5.916c0.488,1.982,1.958,5.813,1.958,5.813s13-2.563,23.042-5.813
			C165.82,157.504,176.666,155.83,175.666,139.164z M140.197,120.121c0,6.973-5.651,12.625-12.625,12.625
			c-6.973,0-12.625-5.652-12.625-12.625s5.652-12.625,12.625-12.625C134.546,107.496,140.197,113.148,140.197,120.121z
			 M95.198,120.121c0,6.973-5.652,12.625-12.625,12.625c-6.973,0-12.625-5.652-12.625-12.625s5.652-12.625,12.625-12.625
			C89.546,107.496,95.198,113.148,95.198,120.121z"/>
	</g>
</g>
<g id="Layer_7" display="none">
	<g display="inline">
		<path fill="#231F20" d="M169.591,69.416c0-5.523-4.478-10-10-10H48.408c-5.523,0-10,4.477-10,10v73.398c0,5.522,4.477,10,10,10
			h76.834l44.349,27.936l-0.138-36.35c0.083-0.518,0.138-1.045,0.138-1.586V69.416z M100.391,138.555c-0.007,0-0.014,0-0.021,0
			c-16.361,0-29.624-14.725-29.624-31.086c0-3.58,0.635-7.012,1.799-10.188c-0.451-0.101-0.706-0.166-0.706-0.166
			s-4.544-12.115-0.7-22.95c1.317-3.712,10.224-1.388,16.115,6.741c3.955-1.957,8.405-3.062,13.116-3.062
			c3.167,0,6.215,0.502,9.077,1.423c2.328-2.748,5.771-5.875,9.914-6.74c6.158-1.287,6.08,12.717,5.772,18.689
			c3.069,4.667,4.86,10.25,4.86,16.253c0,0.08-0.006,0.16-0.006,0.24c4.738,3.189,7.363,7.428,7.363,13.873
			C137.352,132.168,128.219,140.163,100.391,138.555z"/>
	</g>
</g>
</svg>
